<svg width="40" height="40" viewBox="0 0 40 40"  xmlns="http://www.w3.org/2000/svg">
<path d="M0.985207 22.3748L17.6238 39.0134C18.9361 40.3258 21.0645 40.3258 22.3768 39.0134C23.6891 37.7011 23.6891 35.5728 22.3768 34.2605L8.11622 20L22.3768 5.7395C23.6891 4.42719 23.6891 2.29884 22.3768 0.986523C21.0645 -0.325787 18.9361 -0.325787 17.6238 0.986523L0.985207 17.6251C-0.327103 18.9342 -0.327103 21.0625 0.985207 22.3748ZM20.9912 23.3823L34.2009 37.3047C35.5282 38.702 37.6781 38.702 39.0055 37.3047C40.3328 35.9075 40.3328 33.6409 39.0055 32.242L28.1973 20.851L39.0055 9.45991C40.3328 8.06263 40.3328 5.79447 39.0055 4.3972C37.6781 2.99992 35.5282 2.99992 34.2009 4.3972L20.9912 18.3196C19.6639 19.7168 19.6639 21.9834 20.9912 23.3823Z" />
</svg>
