<svg width="40" height="40" viewBox="0 0 40 40"  xmlns="http://www.w3.org/2000/svg">
<path d="M39.0148 17.6252L22.3762 0.986552C21.0639 -0.325758 18.9355 -0.325758 17.6232 0.986552C16.3109 2.29886 16.3109 4.42722 17.6232 5.73953L31.8838 20L17.6232 34.2605C16.3109 35.5728 16.3109 37.7012 17.6232 39.0135C18.9355 40.3258 21.0639 40.3258 22.3762 39.0135L39.0148 22.3749C40.3271 21.0658 40.3271 18.9375 39.0148 17.6252ZM19.0088 16.6177L5.79914 2.69525C4.4718 1.29804 2.32187 1.29804 0.99453 2.69525C-0.332812 4.09246 -0.332812 6.35906 0.99453 7.75796L11.8027 19.149L0.99453 30.5401C-0.332812 31.9374 -0.332812 34.2055 0.99453 35.6028C2.32187 37.0001 4.4718 37.0001 5.79914 35.6028L19.0088 21.6804C20.3361 20.2832 20.3361 18.0166 19.0088 16.6177Z" />
</svg>
