<svg width="30" height="30" viewBox="0 0 30 30" xmlns="http://www.w3.org/2000/svg">
<g clip-path="url(#clip0_119:1509)">
<path d="M26.9337 4.85789L15.4494 0.0897046C15.1617 -0.0297095 14.8383 -0.0297681 14.5506 0.0897046L3.06627 4.85789C2.62887 5.03953 2.34375 5.46656 2.34375 5.94017V11.7366C2.34375 19.7178 7.16772 26.8971 14.5571 29.9132C14.841 30.0291 15.159 30.0291 15.4429 29.9132C22.8322 26.8972 27.6562 19.7179 27.6562 11.7366V5.94017C27.6562 5.46656 27.3712 5.03953 26.9337 4.85789ZM25.3125 11.7366C25.3125 18.5214 21.3281 24.7673 15 27.5554C8.84098 24.8418 4.6875 18.7053 4.6875 11.7366V6.72252L15 2.44084L25.3125 6.72252V11.7366ZM13.7047 15.6866L18.7417 10.6497C19.1993 10.1921 19.9413 10.192 20.3989 10.6497C20.8566 11.1074 20.8566 11.8494 20.3989 12.307L14.5334 18.1725C14.0756 18.6302 13.3337 18.6301 12.8761 18.1725L9.60105 14.8975C9.14338 14.4398 9.14338 13.6978 9.60105 13.2402C10.0587 12.7826 10.8007 12.7825 11.2583 13.2402L13.7047 15.6866Z" />
</g>
<defs>
<clipPath id="clip0_119:1509">
<rect width="30" height="30" fill="white"/>
</clipPath>
</defs>
</svg>
