<svg width="30" height="30" viewBox="0 0 30 30"  xmlns="http://www.w3.org/2000/svg">
<path d="M12.9664 23.789C13.1873 23.789 13.3664 23.6099 13.3664 23.389C13.3664 23.1681 13.1873 22.989 12.9664 22.989C12.7455 22.989 12.5664 23.1681 12.5664 23.389C12.5664 23.6099 12.7455 23.789 12.9664 23.789Z"/>
<path d="M11.7667 23.789C11.9876 23.789 12.1667 23.6099 12.1667 23.389C12.1667 23.1681 11.9876 22.989 11.7667 22.989C11.5458 22.989 11.3667 23.1681 11.3667 23.389C11.3667 23.6099 11.5458 23.789 11.7667 23.789Z"/>
<path d="M8.9665 22.989H6.5665C6.3456 22.989 6.1665 23.1679 6.1665 23.389C6.1665 23.6101 6.3456 23.789 6.5665 23.789H8.9665C9.1874 23.789 9.3665 23.6101 9.3665 23.389C9.3665 23.1679 9.1874 22.989 8.9665 22.989Z"/>
<path d="M12.9664 20.5889C13.1873 20.5889 13.3664 20.4099 13.3664 20.1889C13.3664 19.968 13.1873 19.7889 12.9664 19.7889C12.7455 19.7889 12.5664 19.968 12.5664 20.1889C12.5664 20.4099 12.7455 20.5889 12.9664 20.5889Z"/>
<path d="M11.7667 20.5889C11.9876 20.5889 12.1667 20.4099 12.1667 20.1889C12.1667 19.968 11.9876 19.7889 11.7667 19.7889C11.5458 19.7889 11.3667 19.968 11.3667 20.1889C11.3667 20.4099 11.5458 20.5889 11.7667 20.5889Z"/>
<path d="M6.5665 20.5889H8.9665C9.1874 20.5889 9.3665 20.41 9.3665 20.1889C9.3665 19.9678 9.1874 19.7889 8.9665 19.7889H6.5665C6.3456 19.7889 6.1665 19.9678 6.1665 20.1889C6.1665 20.41 6.3456 20.5889 6.5665 20.5889Z"/>
<path d="M12.9664 17.3891C13.1873 17.3891 13.3664 17.21 13.3664 16.9891C13.3664 16.7682 13.1873 16.5891 12.9664 16.5891C12.7455 16.5891 12.5664 16.7682 12.5664 16.9891C12.5664 17.21 12.7455 17.3891 12.9664 17.3891Z"/>
<path d="M11.7667 17.3891C11.9876 17.3891 12.1667 17.21 12.1667 16.9891C12.1667 16.7682 11.9876 16.5891 11.7667 16.5891C11.5458 16.5891 11.3667 16.7682 11.3667 16.9891C11.3667 17.21 11.5458 17.3891 11.7667 17.3891Z"/>
<path d="M8.9665 16.5891H6.5665C6.3456 16.5891 6.1665 16.768 6.1665 16.9891C6.1665 17.2102 6.3456 17.3891 6.5665 17.3891H8.9665C9.1874 17.3891 9.3665 17.2102 9.3665 16.9891C9.3665 16.768 9.1874 16.5891 8.9665 16.5891Z"/>
<path d="M12.9664 14.189C13.1873 14.189 13.3664 14.01 13.3664 13.789C13.3664 13.5681 13.1873 13.389 12.9664 13.389C12.7455 13.389 12.5664 13.5681 12.5664 13.789C12.5664 14.01 12.7455 14.189 12.9664 14.189Z"/>
<path d="M11.7667 14.189C11.9876 14.189 12.1667 14.01 12.1667 13.789C12.1667 13.5681 11.9876 13.389 11.7667 13.389C11.5458 13.389 11.3667 13.5681 11.3667 13.789C11.3667 14.01 11.5458 14.189 11.7667 14.189Z"/>
<path d="M8.9665 13.389H6.5665C6.3456 13.389 6.1665 13.5679 6.1665 13.789C6.1665 14.0101 6.3456 14.189 6.5665 14.189H8.9665C9.1874 14.189 9.3665 14.0101 9.3665 13.789C9.3665 13.5679 9.1874 13.389 8.9665 13.389Z"/>
<path d="M14.5664 5.38892H4.96641C4.74551 5.38892 4.56641 5.56782 4.56641 5.78892V24.9889C4.56641 25.21 4.74551 25.3889 4.96641 25.3889H14.5664C14.7873 25.3889 14.9664 25.21 14.9664 24.9889V5.78892C14.9664 5.56782 14.7873 5.38892 14.5664 5.38892ZM14.1664 6.18892V8.58892H5.36641V6.18892H14.1664ZM5.36641 18.1889V15.7889H14.1664V18.1889H5.36641ZM14.1664 18.9889V21.3889H5.36641V18.9889H14.1664ZM5.36641 14.9889V12.5889H14.1664V14.9889H5.36641ZM5.36641 11.7889V9.38892H14.1664V11.7889H5.36641ZM5.36641 24.5889V22.1889H14.1664V24.5889H5.36641Z"/>
<path d="M12.9664 7.7889C13.1873 7.7889 13.3664 7.60981 13.3664 7.3889C13.3664 7.16798 13.1873 6.98889 12.9664 6.98889C12.7455 6.98889 12.5664 7.16798 12.5664 7.3889C12.5664 7.60981 12.7455 7.7889 12.9664 7.7889Z"/>
<path d="M11.7667 7.7889C11.9876 7.7889 12.1667 7.60981 12.1667 7.3889C12.1667 7.16798 11.9876 6.98889 11.7667 6.98889C11.5458 6.98889 11.3667 7.16798 11.3667 7.3889C11.3667 7.60981 11.5458 7.7889 11.7667 7.7889Z"/>
<path d="M6.5665 7.7889H8.9665C9.1874 7.7889 9.3665 7.61 9.3665 7.3889C9.3665 7.16779 9.1874 6.98889 8.9665 6.98889H6.5665C6.3456 6.98889 6.1665 7.16779 6.1665 7.3889C6.1665 7.61 6.3456 7.7889 6.5665 7.7889Z"/>
<path d="M12.9664 10.989C13.1873 10.989 13.3664 10.8099 13.3664 10.589C13.3664 10.3681 13.1873 10.189 12.9664 10.189C12.7455 10.189 12.5664 10.3681 12.5664 10.589C12.5664 10.8099 12.7455 10.989 12.9664 10.989Z"/>
<path d="M11.7667 10.989C11.9876 10.989 12.1667 10.8099 12.1667 10.589C12.1667 10.3681 11.9876 10.189 11.7667 10.189C11.5458 10.189 11.3667 10.3681 11.3667 10.589C11.3667 10.8099 11.5458 10.989 11.7667 10.989Z"/>
<path d="M8.9665 10.189H6.5665C6.3456 10.189 6.1665 10.3679 6.1665 10.589C6.1665 10.8101 6.3456 10.989 6.5665 10.989H8.9665C9.1874 10.989 9.3665 10.8101 9.3665 10.589C9.3665 10.3679 9.1874 10.189 8.9665 10.189Z"/>
<path d="M23.7664 18.9889C23.1047 18.9889 22.5664 19.5272 22.5664 20.1889C22.5664 20.8506 23.1047 21.3889 23.7664 21.3889C24.4281 21.3889 24.9664 20.8506 24.9664 20.1889C24.9664 19.5272 24.4282 18.9889 23.7664 18.9889ZM23.7664 20.5889C23.5459 20.5889 23.3664 20.4096 23.3664 20.1889C23.3664 19.9682 23.5459 19.7889 23.7664 19.7889C23.9869 19.7889 24.1664 19.9682 24.1664 20.1889C24.1664 20.4096 23.9869 20.5889 23.7664 20.5889Z"/>
<path d="M25.0063 15.5707C24.7701 15.5707 24.5786 15.7622 24.5786 15.9983C24.5786 16.2344 24.7701 16.4259 25.0063 16.4259C25.2425 16.4259 25.4339 16.2344 25.4339 15.9983C25.4339 15.7622 25.2425 15.5707 25.0063 15.5707Z"/>
<path d="M18.5039 6.49371C18.582 6.57181 18.6844 6.61091 18.7867 6.61091C18.889 6.61091 18.9914 6.57181 19.0695 6.49371L19.3867 6.17651L19.7039 6.49371C19.782 6.57181 19.8844 6.61091 19.9867 6.61091C20.089 6.61091 20.1914 6.57181 20.2695 6.49371C20.4257 6.33751 20.4257 6.08431 20.2695 5.92811L19.9523 5.61091L20.2695 5.29371C20.4257 5.13751 20.4257 4.88431 20.2695 4.72811C20.1133 4.57191 19.8601 4.57191 19.7039 4.72811L19.3867 5.04531L19.0695 4.72811C18.9133 4.57191 18.6601 4.57191 18.5039 4.72811C18.3477 4.88431 18.3477 5.13751 18.5039 5.29371L18.8211 5.61091L18.5039 5.92811C18.3477 6.08431 18.3477 6.33741 18.5039 6.49371Z"/>
<path d="M23.7664 11.3891C23.7664 9.91638 22.8834 8.60708 21.5166 8.05318C21.3934 8.00358 21.2535 8.01768 21.143 8.09228C21.0326 8.16648 20.9664 8.29068 20.9664 8.42388V10.5891H19.3664V8.42378C19.3664 8.29058 19.3002 8.16638 19.1898 8.09218C19.0793 8.01758 18.9394 8.00348 18.8162 8.05308C17.4494 8.60698 16.5664 9.91638 16.5664 11.389C16.5664 12.9242 17.5387 14.2769 18.9664 14.7804V24.189C18.9664 24.8507 19.5047 25.389 20.1664 25.389C20.8281 25.389 21.3664 24.8507 21.3664 24.189V14.7804C22.7942 14.277 23.7664 12.9242 23.7664 11.3891ZM20.8664 14.0969C20.6898 14.1426 20.5664 14.302 20.5664 14.4844V24.1891C20.5664 24.4098 20.3869 24.5891 20.1664 24.5891C19.9459 24.5891 19.7664 24.4098 19.7664 24.1891V14.4844C19.7664 14.302 19.643 14.1426 19.4664 14.0969C18.2299 13.7781 17.3664 12.6645 17.3664 11.3891C17.3664 10.4559 17.8225 9.60708 18.5664 9.09138V10.9891C18.5664 11.2102 18.7455 11.3891 18.9664 11.3891H21.3664C21.5873 11.3891 21.7664 11.2102 21.7664 10.9891V9.09138C22.5103 9.60698 22.9664 10.4559 22.9664 11.3891C22.9664 12.6645 22.103 13.7781 20.8664 14.0969Z"/>
</svg>
