<svg width="31" height="30" viewBox="0 0 31 30"  xmlns="http://www.w3.org/2000/svg">
<path d="M5.17625 16.8055L20.9053 16.8767C21.6551 16.8801 22.2481 16.0614 22.2297 15.0482C22.2114 14.035 21.5887 13.2108 20.8389 13.2074L5.10983 13.1361L6.82223 10.7721C7.33946 10.0581 7.31844 8.89643 6.77527 8.17753C6.23228 7.45863 5.37263 7.45474 4.85531 8.16883L0.882302 13.654C0.851573 13.6963 0.82269 13.7406 0.795292 13.7869C0.788619 13.7983 0.782958 13.8105 0.77647 13.8221C0.756388 13.8576 0.73667 13.8932 0.718707 13.9308C0.713476 13.9417 0.709251 13.9533 0.704113 13.9645C0.686181 14.0038 0.668617 14.0434 0.652895 14.0848C0.649876 14.093 0.647408 14.1017 0.644389 14.1098C0.628095 14.1547 0.612446 14.2001 0.598905 14.247C0.597199 14.2527 0.596042 14.2588 0.594429 14.2647C0.58057 14.314 0.567809 14.364 0.557156 14.4154C0.555734 14.4219 0.555042 14.4286 0.553804 14.4352C0.543766 14.4857 0.534643 14.5367 0.527895 14.5889C0.525913 14.6044 0.525208 14.6204 0.523409 14.636C0.518582 14.6793 0.513754 14.7226 0.511385 14.7667C0.507865 14.8273 0.506709 14.8884 0.50782 14.9498C0.508931 15.0112 0.512301 15.0724 0.518015 15.133C0.521993 15.1778 0.528576 15.2215 0.534887 15.2652C0.537153 15.2804 0.53843 15.2959 0.540965 15.311C0.549702 15.3637 0.56059 15.4153 0.572555 15.4663C0.574022 15.4723 0.574951 15.4787 0.576417 15.4847C0.589029 15.5365 0.60361 15.5871 0.619448 15.637C0.621174 15.6424 0.622455 15.6482 0.624272 15.6536C0.63961 15.701 0.657001 15.7468 0.675105 15.792C0.678236 15.7999 0.68092 15.8083 0.684142 15.8162C0.70155 15.858 0.720649 15.8982 0.740285 15.9381C0.745548 15.9488 0.750099 15.9602 0.755539 15.9708C0.774958 16.0087 0.796154 16.0447 0.817437 16.0805C0.824252 16.0921 0.830354 16.1042 0.837346 16.1155C0.866514 16.162 0.897007 16.2066 0.929181 16.2492L5.10141 21.7713C5.37299 22.1308 5.7237 22.3115 6.07116 22.3131C6.41862 22.3146 6.76285 22.1371 7.02137 21.78C7.5386 21.0659 7.51758 19.9043 6.97441 19.1854L5.17625 16.8055Z" />
<path d="M19.0441 0.0423722C15.357 0.0257631 11.9712 2.48563 9.98698 6.62231C9.58606 7.45826 9.77118 8.59478 10.4005 9.1607C11.0298 9.72651 11.865 9.50776 12.2661 8.67157C13.7658 5.54483 16.3243 3.68564 19.1101 3.69819C23.7132 3.71905 27.5497 8.80366 27.6621 15.0329C27.7746 21.2621 24.1211 26.313 19.5181 26.2923C16.7404 26.2798 14.1187 24.4057 12.505 21.2791C12.0721 20.4407 11.2287 20.217 10.6206 20.7793C10.0127 21.3418 9.87054 22.4773 10.3033 23.3157C12.4383 27.4523 15.9077 29.9317 19.5841 29.9482C25.6768 29.9757 30.5126 23.2902 30.3637 15.0451C30.2149 6.79995 25.1369 0.0698174 19.0441 0.0423722Z" />
</svg>
