<svg width="30" height="30" viewBox="0 0 30 30"  xmlns="http://www.w3.org/2000/svg">
<g clip-path="url(#clip0_119:1464)">
<path d="M28.8279 13.8281H8.45264C7.80541 13.8281 7.28076 14.3528 7.28076 15C7.28076 15.6472 7.80541 16.1719 8.45264 16.1719H28.8279C29.4751 16.1719 29.9998 15.6472 29.9998 15C29.9998 14.3528 29.4751 13.8281 28.8279 13.8281Z" />
<path d="M28.8279 5.03906H8.45264C7.80541 5.03906 7.28076 5.56371 7.28076 6.21094C7.28076 6.85816 7.80541 7.38281 8.45264 7.38281H28.8279C29.4751 7.38281 29.9998 6.85816 29.9998 6.21094C29.9998 5.56371 29.4751 5.03906 28.8279 5.03906Z" />
<path d="M28.8279 22.6172H8.45264C7.80541 22.6172 7.28076 23.1418 7.28076 23.7891C7.28076 24.4363 7.80541 24.9609 8.45264 24.9609H28.8279C29.4751 24.9609 29.9998 24.4363 29.9998 23.7891C29.9998 23.1418 29.4751 22.6172 28.8279 22.6172Z" />
<path d="M1.58203 7.79297C2.45576 7.79297 3.16406 7.08467 3.16406 6.21094C3.16406 5.33721 2.45576 4.62891 1.58203 4.62891C0.7083 4.62891 0 5.33721 0 6.21094C0 7.08467 0.7083 7.79297 1.58203 7.79297Z" />
<path d="M1.58203 16.582C2.45576 16.582 3.16406 15.8737 3.16406 15C3.16406 14.1263 2.45576 13.418 1.58203 13.418C0.7083 13.418 0 14.1263 0 15C0 15.8737 0.7083 16.582 1.58203 16.582Z" />
<path d="M1.58203 25.3711C2.45576 25.3711 3.16406 24.6628 3.16406 23.7891C3.16406 22.9153 2.45576 22.207 1.58203 22.207C0.7083 22.207 0 22.9153 0 23.7891C0 24.6628 0.7083 25.3711 1.58203 25.3711Z" />
</g>
<defs>
<clipPath id="clip0_119:1464">
<rect width="30" height="30" fill="white"/>
</clipPath>
</defs>
</svg>
