<svg width="30" height="30" viewBox="0 0 30 30"  xmlns="http://www.w3.org/2000/svg">
<path d="M28.3333 4.45312H23.3164C22.2503 1.88324 18.8698 0 14.875 0C13.9544 0 13.2083 0.524597 13.2083 1.17188V4.45312H1.66667C0.746094 4.45312 0 4.97772 0 5.625V28.8281C0 29.4754 0.746094 30 1.66667 30H28.3333C29.2539 30 30 29.4754 30 28.8281V5.625C30 4.97772 29.2539 4.45312 28.3333 4.45312ZM14.875 27.6562H3.33333V6.79688H13.2083V18.8086C13.2083 19.4559 13.9544 19.9805 14.875 19.9805C17.8848 19.9805 20.3333 21.7021 20.3333 23.8184C20.3333 25.9346 17.8848 27.6562 14.875 27.6562ZM20.3333 18.9757C19.2477 18.3694 17.9544 17.9395 16.5417 17.7482V2.52663C18.7386 3.0233 20.3333 4.47395 20.3333 6.18164V18.9757ZM26.6667 27.6562H21.762C22.9538 26.6011 23.6667 25.2672 23.6667 23.8184V6.79688H26.6667V27.6562Z" />
</svg>
