<svg width="30" height="30" viewBox="0 0 30 30" xmlns="http://www.w3.org/2000/svg">
<path d="M29.29 18.1749L28.2257 17.5774C28.4044 16.7131 28.4949 15.8475 28.4949 15C28.4949 14.1402 28.4059 13.2738 28.2302 12.42L29.29 11.825C29.6182 11.6408 29.853 11.3433 29.9511 10.9873C30.0491 10.6314 29.9988 10.2596 29.8093 9.94045L26.9111 5.05949C26.7215 4.74035 26.4156 4.51204 26.0495 4.41669C25.6834 4.32135 25.301 4.37025 24.9728 4.55454L23.9121 5.14996C22.5724 4.00391 20.9956 3.11695 19.3172 2.56509V1.37965C19.3172 0.618904 18.6807 0 17.8983 0H12.1018C11.3194 0 10.6829 0.618904 10.6829 1.37965V2.56515C9.01339 3.11478 7.43881 4.00292 6.09409 5.15348L5.02725 4.55454C4.69896 4.37025 4.31658 4.32129 3.95049 4.41669C3.58441 4.51209 3.27847 4.74035 3.08894 5.05949L0.190715 9.94045C0.00118312 10.2596 -0.0491131 10.6314 0.0489434 10.9873C0.147 11.3433 0.381816 11.6408 0.71004 11.825L1.77429 12.4225C1.59569 13.2869 1.50518 14.1524 1.50518 15C1.50518 15.8597 1.59418 16.7261 1.76988 17.5799L0.710101 18.1749C0.0325202 18.5553 -0.200425 19.4007 0.190715 20.0595L3.08894 24.9405C3.48014 25.5993 4.3496 25.8258 5.02725 25.4455L6.08781 24.85C7.42764 25.9961 9.00433 26.8831 10.6829 27.435V28.6204C10.6829 29.3811 11.3194 30 12.1018 30H17.8983C18.6807 30 19.3172 29.3811 19.3172 28.6204V27.4349C20.9867 26.8852 22.5613 25.9971 23.906 24.8466L24.9728 25.4455C25.6503 25.8258 26.5199 25.5993 26.9111 24.9405L29.8093 20.0595C30.2005 19.4007 29.9675 18.5553 29.29 18.1749ZM29.025 19.6192L26.1267 24.5001C25.9853 24.7385 25.6707 24.8204 25.4257 24.6828L24.0736 23.9238C23.9019 23.8273 23.6854 23.8509 23.5398 23.9819C22.1575 25.2249 20.4944 26.1628 18.7303 26.6941C18.5408 26.7513 18.4115 26.9217 18.4115 27.1147V28.6204C18.4115 28.8955 18.1813 29.1194 17.8983 29.1194H12.1018C11.8188 29.1194 11.5886 28.8955 11.5886 28.6204V27.1148C11.5886 26.9218 11.4593 26.7513 11.2698 26.6942C9.49486 26.1595 7.82971 25.2228 6.4542 23.9854C6.3684 23.9082 6.25796 23.8683 6.14656 23.8683C6.06891 23.8683 5.99084 23.8877 5.92026 23.9273L4.5744 24.6828C4.32926 24.8203 4.0148 24.7384 3.87333 24.5001L0.975107 19.6192C0.833637 19.3809 0.917927 19.0751 1.16295 18.9375L2.50772 18.1826C2.67944 18.0862 2.76669 17.8924 2.72304 17.7043C2.51587 16.8116 2.41087 15.9016 2.41087 15C2.41087 14.1135 2.51744 13.2045 2.72769 12.2981C2.77128 12.1101 2.68403 11.9163 2.51237 11.8199L1.16295 11.0624C1.04424 10.9958 0.959348 10.8882 0.923844 10.7594C0.888402 10.6307 0.906576 10.4962 0.975107 10.3808L3.87333 5.4998C3.94186 5.38438 4.05254 5.30178 4.18501 5.26732C4.31736 5.2328 4.45575 5.25053 4.57446 5.31716L5.92648 6.07614C6.09832 6.17266 6.31472 6.14906 6.46036 6.01808C7.84269 4.77505 9.50572 3.83718 11.2698 3.30581C11.4594 3.24869 11.5886 3.0782 11.5886 2.88523V1.37965C11.5886 1.10448 11.8189 0.880626 12.1019 0.880626H17.8983C18.1813 0.880626 18.4115 1.10448 18.4115 1.37965V2.88523C18.4115 3.0782 18.5408 3.24869 18.7303 3.30581C20.5052 3.84041 22.1704 4.7771 23.5459 6.01456C23.6916 6.1456 23.908 6.16914 24.0799 6.07268L25.4257 5.31716C25.5445 5.25053 25.6828 5.2328 25.8152 5.26732C25.9476 5.30184 26.0583 5.38438 26.1269 5.4998L29.0251 10.3808C29.0936 10.4962 29.1118 10.6307 29.0763 10.7594C29.0408 10.8882 28.9559 10.9958 28.8372 11.0624L27.4925 11.8174C27.3207 11.9138 27.2335 12.1076 27.2771 12.2956C27.4843 13.1883 27.5893 14.0982 27.5893 15C27.5893 15.8865 27.4827 16.7955 27.2725 17.7018C27.2289 17.8899 27.3161 18.0836 27.4878 18.18L28.8372 18.9375C29.0822 19.0751 29.1665 19.3809 29.025 19.6192Z"/>
<path d="M15.0001 6.10571C9.95606 6.10571 5.85254 10.0957 5.85254 15C5.85254 19.9044 9.95606 23.8944 15.0001 23.8944C20.0441 23.8944 24.1476 19.9044 24.1476 15C24.1476 10.0957 20.0441 6.10571 15.0001 6.10571ZM15.0001 23.0137C10.4555 23.0137 6.75823 19.4188 6.75823 15C6.75823 10.5813 10.4555 6.98634 15.0001 6.98634C19.5446 6.98634 23.2419 10.5813 23.2419 15C23.2419 19.4188 19.5446 23.0137 15.0001 23.0137Z"/>
<path d="M16.6908 12.681H15.0002C14.7501 12.681 14.5474 12.8782 14.5474 13.1213V16.8787C14.5474 17.1219 14.7501 17.319 15.0002 17.319C15.2503 17.319 15.4531 17.1219 15.4531 16.8787V15.91H16.6908C17.6064 15.91 18.3513 15.1858 18.3513 14.2955C18.3513 13.4053 17.6064 12.681 16.6908 12.681ZM16.6908 15.0294H15.4531V13.5617H16.6908C17.107 13.5617 17.4456 13.8908 17.4456 14.2955C17.4456 14.7002 17.107 15.0294 16.6908 15.0294Z"/>
<path d="M12.5259 12.9668C12.4596 12.7949 12.2906 12.681 12.1019 12.681H11.6189C11.4301 12.681 11.2611 12.7949 11.1949 12.9668L9.74576 16.7241C9.65791 16.9518 9.77662 17.2056 10.0108 17.291C10.2449 17.3764 10.5059 17.261 10.5938 17.0333L10.8458 16.3797H12.8749L13.127 17.0333C13.1951 17.21 13.3677 17.3191 13.551 17.3191C13.6038 17.3191 13.6576 17.3101 13.7099 17.291C13.9441 17.2056 14.0628 16.9518 13.9749 16.7241L12.5259 12.9668ZM11.1855 15.499L11.8604 13.7491L12.5353 15.499H11.1855Z"/>
<path d="M19.3474 12.681C19.0973 12.681 18.8945 12.8782 18.8945 13.1213V16.8787C18.8945 17.1219 19.0973 17.319 19.3474 17.319C19.5975 17.319 19.8002 17.1219 19.8002 16.8787V13.1213C19.8002 12.8782 19.5975 12.681 19.3474 12.681Z"/>
<path d="M18.2393 5.1253C18.5536 5.22269 18.8669 5.33582 19.1704 5.46146C19.2283 5.48541 19.2884 5.49674 19.3476 5.49674C19.5236 5.49674 19.6911 5.39624 19.7644 5.2288C19.8624 5.00506 19.7552 4.74645 19.5251 4.65123C19.1956 4.51485 18.8555 4.39203 18.5143 4.28629C18.2761 4.21244 18.0213 4.34042 17.9453 4.57209C17.8694 4.80375 18.001 5.05144 18.2393 5.1253Z"/>
<path d="M5.63808 19.9552C5.51829 19.7418 5.24314 19.6631 5.02366 19.7796C4.80412 19.8961 4.72321 20.1635 4.843 20.377C5.0309 20.7119 5.23891 21.0413 5.46123 21.3561C5.54902 21.4804 5.69073 21.5472 5.83492 21.5472C5.92325 21.5472 6.01249 21.5221 6.09087 21.4698C6.29706 21.3321 6.34941 21.058 6.20782 20.8576C6.00295 20.5674 5.81125 20.2639 5.63808 19.9552Z"/>
<path d="M14.0725 25.3233C11.6459 25.12 9.3425 24.0975 7.58672 22.4442C7.40703 22.275 7.12034 22.2795 6.94639 22.4542C6.77244 22.6289 6.77696 22.9076 6.95665 23.0768C8.86163 24.8706 11.3612 25.98 13.9947 26.2007C14.0079 26.2018 14.021 26.2023 14.0341 26.2023C14.2666 26.2023 14.4644 26.0292 14.4847 25.7998C14.5062 25.5576 14.3216 25.3442 14.0725 25.3233Z"/>
<path d="M21.5165 5.71158C21.31 5.57438 21.0282 5.62593 20.8871 5.82665C20.746 6.02743 20.799 6.30143 21.0055 6.43863C23.1093 7.83665 24.6312 9.91698 25.2907 12.2963C25.3452 12.4928 25.528 12.6221 25.7277 12.6221C25.7667 12.6221 25.8064 12.6172 25.8458 12.6069C26.0873 12.5436 26.2303 12.302 26.1652 12.0672C25.4496 9.48518 23.7986 7.22808 21.5165 5.71158Z"/>
</svg>
