<svg width="30" height="30" viewBox="0 0 30 30"  xmlns="http://www.w3.org/2000/svg">
<path d="M23.7728 4.59195C21.4066 2.22594 18.2609 0.922852 14.9149 0.922852C11.5687 0.922852 8.42281 2.22594 6.05696 4.59195C3.69078 6.95796 2.3877 10.1037 2.3877 13.4499C2.3877 16.2316 3.32274 18.9515 5.02648 21.1405L3.31536 28.3644C3.2666 28.5698 3.33853 28.7849 3.50092 28.92C3.60255 29.0043 3.72854 29.0479 3.85575 29.0479C3.93196 29.0479 4.00887 29.0321 4.08114 29L11.7798 25.5805C12.8009 25.8438 13.8544 25.9771 14.9149 25.9771C18.2609 25.9771 21.4066 24.674 23.7728 22.3078C26.139 19.9419 27.4419 16.7959 27.4419 13.4499C27.4419 10.1037 26.1388 6.95796 23.7728 4.59195V4.59195ZM14.9149 24.8659C13.8866 24.8659 12.8659 24.7286 11.8808 24.4578C11.757 24.4237 11.6253 24.4336 11.5081 24.4857L4.65449 27.5297L6.16975 21.1341C6.20974 20.9661 6.16889 20.7891 6.05988 20.6552C4.40833 18.6279 3.49869 16.0689 3.49869 13.4499C3.49869 7.15503 8.61987 2.03367 14.9149 2.03367C21.2097 2.03367 26.3307 7.15503 26.3307 13.4499C26.3307 19.7449 21.2097 24.8659 14.9149 24.8659V24.8659Z" />
<path d="M22.8151 13.3721C22.8151 9.01605 19.271 5.47192 14.9149 5.47192C10.5588 5.47192 7.01465 9.01605 7.01465 13.3721C7.01465 17.7286 10.5588 21.2725 14.9149 21.2725C19.271 21.2725 22.8151 17.7286 22.8151 13.3721V13.3721ZM14.9149 20.1617C11.1711 20.1617 8.12547 17.1159 8.12547 13.3725C8.12547 9.62871 11.1711 6.58292 14.9149 6.58292C18.6583 6.58292 21.7041 9.62871 21.7041 13.3725C21.7041 17.1159 18.6583 20.1617 14.9149 20.1617Z" />
<path d="M23.5699 17.5571C23.2772 17.4634 22.9648 17.6242 22.8712 17.9164C22.4026 19.3765 21.0966 20.3823 20.0835 20.9687C19.8181 21.1225 19.7273 21.4622 19.8809 21.7276C19.9839 21.9054 20.1703 22.005 20.3622 22.005C20.4567 22.005 20.5523 21.9808 20.6398 21.9302C21.8222 21.2459 23.3522 20.0527 23.9289 18.2558C24.0226 17.9638 23.8619 17.6508 23.5699 17.5571Z" />
<path d="M18.674 22.0119C18.3894 21.8967 18.0656 22.0337 17.9505 22.318L17.9481 22.3238C17.8329 22.6079 17.9697 22.9318 18.2541 23.0472C18.3225 23.075 18.3932 23.088 18.4627 23.088C18.6821 23.088 18.8901 22.957 18.9777 22.7413L18.9799 22.7354C19.0953 22.4512 18.9583 22.1274 18.674 22.0119Z" />
<path d="M14.8985 16.9373C14.6298 16.9373 14.4137 17.0334 14.2508 17.225C14.0877 17.4171 14.0063 17.6472 14.0063 17.9157C14.0063 18.1744 14.0877 18.4026 14.2508 18.5989C14.4139 18.7957 14.6298 18.894 14.8985 18.894C15.1666 18.894 15.3968 18.7957 15.5889 18.5989C15.7805 18.4026 15.8766 18.1744 15.8766 17.9157C15.8766 17.6472 15.7805 17.4171 15.5889 17.225C15.3968 17.0334 15.1666 16.9373 14.8985 16.9373Z" />
<path d="M17.2288 8.92399C16.6915 8.46377 15.9723 8.2334 15.0709 8.2334C14.2651 8.2334 13.6224 8.4157 13.1431 8.77997C12.6633 9.14458 12.4238 9.52824 12.4238 9.93096C12.4238 10.1517 12.4976 10.322 12.6458 10.4417C12.7939 10.5616 12.9589 10.6216 13.1405 10.6216C13.2835 10.6216 13.4102 10.5728 13.5201 10.4748C13.6301 10.3769 13.7233 10.2724 13.7999 10.1612C13.8763 10.0501 14.0196 9.94555 14.2301 9.84753C14.4402 9.74968 14.703 9.70076 15.0182 9.70076C15.4676 9.70076 15.8258 9.80736 16.0935 10.0209C16.3611 10.2341 16.495 10.535 16.495 10.9238C16.495 11.1513 16.4399 11.3719 16.3295 11.5851C16.2193 11.7985 16.1087 11.9597 15.9987 12.0687C15.8883 12.1777 15.7228 12.327 15.5022 12.5167L15.0851 12.8578C14.5097 13.37 14.222 14.1188 14.222 15.1048C14.222 15.4083 14.2721 15.6169 14.3727 15.7305C14.4736 15.8445 14.6438 15.9013 14.8837 15.9013C15.363 15.9013 15.603 15.7287 15.603 15.3834C15.603 14.8944 15.6411 14.5202 15.7182 14.2611C15.7946 14.0024 15.9961 13.7434 16.3223 13.4844L16.5973 13.2542L16.9741 12.8945C17.0515 12.818 17.1703 12.6811 17.3299 12.4844C17.4896 12.288 17.6108 12.1104 17.693 11.9523C17.7754 11.794 17.8526 11.5997 17.9251 11.3695C17.9979 11.1395 18.0343 10.9045 18.0343 10.6646C18.0343 9.9646 17.766 9.38422 17.2288 8.92399V8.92399Z" />
</svg>
