<svg width="30" height="30" viewBox="0 0 30 30"  xmlns="http://www.w3.org/2000/svg">
<g clip-path="url(#clip0_119:1551)">
<path d="M29.4319 23.6327L21.9691 16.1696C21.5892 15.7897 21.0862 15.947 21.1759 15.9291C20.3633 16.0911 19.6186 15.5908 19.1512 15.1628L22.2256 12.0882C24.339 12.6636 26.6295 12.0703 28.1973 10.5024C30.0382 8.66149 30.5212 5.84717 29.3993 3.4995C29.1379 2.95247 28.4131 2.82872 27.9848 3.25698L25.148 6.09385L24.1278 5.87073L23.9053 4.85067L26.7419 2.01397C27.1706 1.58524 27.0457 0.860552 26.4993 0.5994C24.1508 -0.522729 21.3365 -0.0396819 19.4966 1.80139C17.9288 3.36918 17.3357 5.66002 17.9112 7.77373L13.4636 12.2215L7.43603 6.19375L8.26467 5.36506C8.64043 4.98936 8.59894 4.36797 8.17707 4.04536L4.65541 1.35221C4.30543 1.08461 3.81148 1.11743 3.5 1.42891L1.42836 3.50061C1.11687 3.81209 1.08406 4.3061 1.35166 4.65602L4.04474 8.17785C4.36719 8.59961 4.98816 8.64163 5.36439 8.26545L6.19303 7.43682L12.2206 13.4646L7.77295 17.9124C5.65906 17.3369 3.36851 17.93 1.80096 19.4976C-0.0401773 21.3378 -0.523283 24.1521 0.598788 26.5006C0.860057 27.0476 1.58486 27.1716 2.0133 26.7432L4.84988 23.9065L5.86988 24.129L6.09306 25.1493L3.25625 27.9862C2.82764 28.4148 2.95215 29.1396 3.49877 29.4007C5.84709 30.5232 8.66123 30.0392 10.5015 28.1987C12.0694 26.6308 12.6627 24.3402 12.0873 22.2268L15.161 19.153C16.2137 20.305 15.9279 21.1781 15.9279 21.1781C15.8719 21.4602 15.9593 21.7609 16.1686 21.9703L23.6313 29.4334C24.3866 30.1885 25.6153 30.1885 26.3703 29.4334L29.4318 26.3718C30.1888 25.6148 30.1889 24.3897 29.4319 23.6327ZM3.21547 4.19946L4.19885 3.21608L6.31185 4.83198L4.83131 6.31258L3.21547 4.19946ZM10.2638 22.2949C10.8715 23.9078 10.477 25.7373 9.25865 26.9557C8.26455 27.9498 6.87383 28.3896 5.52939 28.1991L7.67592 26.0525C7.88767 25.8408 7.97703 25.5357 7.91305 25.2432L7.46685 23.2026C7.39349 22.867 7.13123 22.6048 6.79555 22.5316L4.75543 22.0866C4.46316 22.0227 4.1583 22.1122 3.94666 22.3238L1.80049 24.4701C1.60982 23.1256 2.04969 21.7344 3.04385 20.7407C4.26213 19.5224 6.09178 19.128 7.70486 19.7359C8.02783 19.8576 8.39228 19.7791 8.63633 19.535L19.5338 8.63705C19.7779 8.39295 19.8566 8.02862 19.7348 7.70559C19.1269 6.09233 19.5212 4.26262 20.7397 3.04416C21.7334 2.04995 23.1246 1.61026 24.4688 1.80092L22.3227 3.94727C22.1111 4.15885 22.0216 4.46366 22.0854 4.75604L22.5304 6.79621C22.6036 7.1319 22.8657 7.39422 23.2013 7.46758L25.2419 7.91383C25.5344 7.9777 25.8393 7.8884 26.0511 7.67664L28.1977 5.53006C28.3882 6.87414 27.9483 8.26539 26.9543 9.25944C25.7359 10.4778 23.9066 10.8725 22.2936 10.2646C21.9706 10.1429 21.6062 10.2215 21.3622 10.4656C21.2596 10.5682 10.7308 21.0974 10.4647 21.3634C10.2206 21.6075 10.142 21.9719 10.2638 22.2949ZM17.9084 16.4055C18.292 16.7634 18.8218 17.1686 19.4625 17.4333L17.4319 19.4639C17.1673 18.8232 16.7622 18.2931 16.4045 17.9096L17.9084 16.4055ZM28.1889 25.1288L25.1275 28.1904C25.0577 28.2601 24.9442 28.2602 24.8744 28.1904L18.033 21.3488L21.3476 18.0341L28.1889 24.8757C28.259 24.9457 28.259 25.0587 28.1889 25.1288Z"/>
</g>
<defs>
<clipPath id="clip0_119:1551">
<rect width="30" height="30" fill="white"/>
</clipPath>
</defs>
</svg>
